<?xml version="1.0" encoding="UTF-8" standalone="no"?>
<!-- Created with Inkscape (http://www.inkscape.org/) -->

<svg
   width="154.00108"
   height="153.99551"
   viewBox="0 0 154.00108 153.99551"
   version="1.1"
   id="svg1"
   inkscape:version="1.3 (0e150ed6c4, 2023-07-21)"
   sodipodi:docname="drawing-1.svg"
   xmlns:inkscape="http://www.inkscape.org/namespaces/inkscape"
   xmlns:sodipodi="http://sodipodi.sourceforge.net/DTD/sodipodi-0.dtd"
   xmlns:xlink="http://www.w3.org/1999/xlink"
   xmlns="http://www.w3.org/2000/svg"
   xmlns:svg="http://www.w3.org/2000/svg">
  <sodipodi:namedview
     id="namedview1"
     pagecolor="#ffffff"
     bordercolor="#000000"
     borderopacity="0.25"
     inkscape:showpageshadow="2"
     inkscape:pageopacity="0.0"
     inkscape:pagecheckerboard="0"
     inkscape:deskcolor="#d1d1d1"
     inkscape:document-units="px"
     inkscape:zoom="0.79394531"
     inkscape:cx="201.52522"
     inkscape:cy="169.40713"
     inkscape:window-width="1920"
     inkscape:window-height="1009"
     inkscape:window-x="-8"
     inkscape:window-y="-8"
     inkscape:window-maximized="1"
     inkscape:current-layer="layer1" />
  <defs
     id="defs1">
    <linearGradient
       id="linearGradient14"
       inkscape:collect="always">
      <stop
         style="stop-color:#6d2589;stop-opacity:1;"
         offset="0"
         id="stop14" />
      <stop
         style="stop-color:#a4580c;stop-opacity:1;"
         offset="1"
         id="stop15" />
    </linearGradient>
    <linearGradient
       id="linearGradient7-6"
       inkscape:collect="always"
       gradientTransform="matrix(0.62462584,0,0,1.6009584,-708.15876,-29.79032)"
       x1="965.0127"
       y1="-119.72808"
       x2="1036.8715"
       y2="-119.72808"
       gradientUnits="userSpaceOnUse">
      <stop
         style="stop-color:#6d2589;stop-opacity:1;"
         offset="0"
         id="stop6" />
      <stop
         style="stop-color:#a4580c;stop-opacity:1;"
         offset="1"
         id="stop7" />
    </linearGradient>
    <linearGradient
       id="linearGradient11-6"
       inkscape:collect="always"
       gradientTransform="matrix(1.4485059,0,0,0.69036655,-708.15876,-29.79032)"
       x1="348.59042"
       y1="-158.43158"
       x2="410.39447"
       y2="-158.43158"
       gradientUnits="userSpaceOnUse">
      <stop
         style="stop-color:#6d2589;stop-opacity:1;"
         offset="0"
         id="stop10" />
      <stop
         style="stop-color:#a4580c;stop-opacity:1;"
         offset="1"
         id="stop11" />
    </linearGradient>
    <linearGradient
       inkscape:collect="always"
       xlink:href="#linearGradient14"
       id="linearGradient16"
       gradientUnits="userSpaceOnUse"
       gradientTransform="translate(-395.86866,-406.23908)"
       x1="163.86867"
       y1="232.74155"
       x2="352.86719"
       y2="232.74155" />
  </defs>
  <g
     inkscape:label="Layer 1"
     inkscape:groupmode="layer"
     id="layer1"
     transform="translate(349.2731,69.121567)">
    <g
       id="g18"
       transform="translate(-134.76999,181.37269)"
       inkscape:export-filename="circle-4.png"
       inkscape:export-xdpi="96"
       inkscape:export-ydpi="96">
      <path
         style="color:#000000;fill:url(#linearGradient7-6);fill-opacity:1;stroke:none;stroke-linecap:round;stroke-linejoin:round;-inkscape-stroke:none"
         d="m -78.83936,-221.42463 a 4.5,4.5 0 0 0 -3.33594,0.85352 4.5,4.5 0 0 0 -0.9043,6.29883 c 11.61856,15.50916 16.06725,35.23132 12.23242,54.22656 -3.83482,18.99524 -15.58706,35.44739 -32.3125,45.23437 a 4.5,4.5 0 0 0 -1.61132,6.15625 4.5,4.5 0 0 0 6.1582,1.61133 c 18.93459,-11.07968 32.24655,-29.71649 36.58789,-51.2207 4.34134,-21.50421 -0.69838,-43.84663 -13.85156,-61.4043 a 4.5,4.5 0 0 0 -2.96289,-1.75586 z"
         id="path10-0" />
      <path
         style="color:#000000;fill:url(#linearGradient16);fill-opacity:1;stroke:none;stroke-linecap:round;stroke-linejoin:round;-inkscape-stroke:none"
         d="m -135.47999,-250.4676 c -15.99715,-0.42033 -32.12518,4.12879 -45.92969,13.71094 -27.60901,19.1643 -39.60396,54.07539 -29.60546,86.16211 a 4.5,4.5 0 0 0 5.63476,2.95703 4.5,4.5 0 0 0 2.95703,-5.63476 c -8.84017,-28.36949 1.73597,-59.14573 26.14649,-76.08985 24.41052,-16.94412 56.94266,-16.08936 80.42968,2.11328 a 4.5,4.5 0 0 0 6.31446,-0.80078 4.5,4.5 0 0 0 -0.80078,-6.31445 c -13.28226,-10.29386 -29.14933,-15.68318 -45.14649,-16.10352 z"
         id="path9-1" />
      <path
         style="color:#000000;fill:url(#linearGradient11-6);fill-opacity:1;stroke:none;stroke-linecap:round;stroke-linejoin:round;-inkscape-stroke:none"
         d="m -197.73975,-139.05744 a 4.5,4.5 0 0 0 -3.39454,0.5918 4.5,4.5 0 0 0 -1.38867,6.21093 c 18.13809,28.5928 52.883,41.98946 85.52149,32.97461 a 4.5,4.5 0 0 0 3.13867,-5.53711 4.5,4.5 0 0 0 -5.53516,-3.13867 c -28.85826,7.97074 -59.48808,-3.83994 -75.52539,-29.12109 a 4.5,4.5 0 0 0 -2.8164,-1.98047 z"
         id="path6-9" />
    </g>
  </g>
</svg>
