<?xml version="1.0" encoding="UTF-8" standalone="no"?>
<!-- Created with Inkscape (http://www.inkscape.org/) -->

<svg
   width="83.989342"
   height="83.992218"
   viewBox="0 0 83.989342 83.992218"
   version="1.1"
   id="svg1"
   inkscape:version="1.3 (0e150ed6c4, 2023-07-21)"
   sodipodi:docname="drawing-1.svg"
   xmlns:inkscape="http://www.inkscape.org/namespaces/inkscape"
   xmlns:sodipodi="http://sodipodi.sourceforge.net/DTD/sodipodi-0.dtd"
   xmlns:xlink="http://www.w3.org/1999/xlink"
   xmlns="http://www.w3.org/2000/svg"
   xmlns:svg="http://www.w3.org/2000/svg">
  <sodipodi:namedview
     id="namedview1"
     pagecolor="#ffffff"
     bordercolor="#000000"
     borderopacity="0.25"
     inkscape:showpageshadow="2"
     inkscape:pageopacity="0.0"
     inkscape:pagecheckerboard="0"
     inkscape:deskcolor="#d1d1d1"
     inkscape:document-units="px"
     inkscape:zoom="0.79394531"
     inkscape:cx="201.52522"
     inkscape:cy="169.40713"
     inkscape:window-width="1920"
     inkscape:window-height="1009"
     inkscape:window-x="-8"
     inkscape:window-y="-8"
     inkscape:window-maximized="1"
     inkscape:current-layer="layer1" />
  <defs
     id="defs1">
    <linearGradient
       id="linearGradient14"
       inkscape:collect="always">
      <stop
         style="stop-color:#6d2589;stop-opacity:1;"
         offset="0"
         id="stop14" />
      <stop
         style="stop-color:#a4580c;stop-opacity:1;"
         offset="1"
         id="stop15" />
    </linearGradient>
    <linearGradient
       id="linearGradient3-8"
       inkscape:collect="always"
       gradientTransform="matrix(1.4931497,0,0,0.6697252,-708.15876,-29.79032)"
       x1="369.51804"
       y1="-187.61847"
       x2="405.25912"
       y2="-187.61847"
       gradientUnits="userSpaceOnUse">
      <stop
         style="stop-color:#6d2589;stop-opacity:1;"
         offset="0"
         id="stop1" />
      <stop
         style="stop-color:#a4580c;stop-opacity:1;"
         offset="1"
         id="stop2" />
    </linearGradient>
    <linearGradient
       inkscape:collect="always"
       xlink:href="#linearGradient14"
       id="linearGradient13"
       gradientUnits="userSpaceOnUse"
       gradientTransform="translate(-395.86866,-406.23908)"
       x1="163.86867"
       y1="232.74155"
       x2="352.86719"
       y2="232.74155" />
  </defs>
  <g
     inkscape:label="Layer 1"
     inkscape:groupmode="layer"
     id="layer1"
     transform="translate(24.568823,92.064476)">
    <g
       id="g19"
       transform="translate(154.92251,123.43419)"
       inkscape:export-filename="circle-2.png"
       inkscape:export-xdpi="96"
       inkscape:export-ydpi="96">
      <path
         style="color:#000000;fill:url(#linearGradient13);fill-opacity:1;stroke:none;stroke-linecap:round;stroke-linejoin:round;-inkscape-stroke:none"
         d="m -135.48585,-215.45197 c -13.93568,-0.6585 -27.69972,5.67143 -36.16992,17.50586 -11.2936,15.77924 -10.28779,37.30919 2.42773,51.9668 a 4.5,4.5 0 0 0 6.34766,0.45117 4.5,4.5 0 0 0 0.45117,-6.34961 c -10.01888,-11.5491 -10.80672,-28.39722 -1.9082,-40.83008 8.89852,-12.43286 25.10239,-17.12195 39.26562,-11.36328 14.16324,5.75867 22.49556,20.42418 20.19336,35.53906 a 4.5,4.5 0 0 0 3.77149,5.125 4.5,4.5 0 0 0 5.125,-3.76953 c 2.92184,-19.18314 -7.72582,-37.92377 -25.70117,-45.23242 -4.49384,-1.82716 -9.15751,-2.82347 -13.80274,-3.04297 z"
         id="path13-8" />
      <path
         style="color:#000000;fill:url(#linearGradient3-8);fill-opacity:1;stroke:none;stroke-linecap:round;stroke-linejoin:round;-inkscape-stroke:none"
         d="m -108.17335,-155.39924 a 4.5,4.5 0 0 0 -2.96679,1.74805 c -9.07798,12.05535 -25.1106,16.41439 -39.04297,10.61523 a 4.5,4.5 0 0 0 -5.88477,2.42579 4.5,4.5 0 0 0 2.42578,5.88281 c 17.6846,7.36097 38.16857,1.7923 49.69141,-13.50977 a 4.5,4.5 0 0 0 -0.88867,-6.30078 4.5,4.5 0 0 0 -3.33399,-0.86133 z"
         id="path12-2" />
    </g>
  </g>
</svg>
