<?xml version="1.0" encoding="UTF-8" standalone="no"?>
<!-- Created with Inkscape (http://www.inkscape.org/) -->

<svg
   width="188.99854"
   height="189.00491"
   viewBox="0 0 188.99854 189.00491"
   version="1.1"
   id="svg1"
   inkscape:version="1.3 (0e150ed6c4, 2023-07-21)"
   sodipodi:docname="drawing-1.svg"
   xmlns:inkscape="http://www.inkscape.org/namespaces/inkscape"
   xmlns:sodipodi="http://sodipodi.sourceforge.net/DTD/sodipodi-0.dtd"
   xmlns:xlink="http://www.w3.org/1999/xlink"
   xmlns="http://www.w3.org/2000/svg"
   xmlns:svg="http://www.w3.org/2000/svg">
  <sodipodi:namedview
     id="namedview1"
     pagecolor="#ffffff"
     bordercolor="#000000"
     borderopacity="0.25"
     inkscape:showpageshadow="2"
     inkscape:pageopacity="0.0"
     inkscape:pagecheckerboard="0"
     inkscape:deskcolor="#d1d1d1"
     inkscape:document-units="px"
     inkscape:zoom="0.79394531"
     inkscape:cx="201.52522"
     inkscape:cy="169.40713"
     inkscape:window-width="1920"
     inkscape:window-height="1009"
     inkscape:window-x="-8"
     inkscape:window-y="-8"
     inkscape:window-maximized="1"
     inkscape:current-layer="layer1" />
  <defs
     id="defs1">
    <linearGradient
       id="linearGradient14"
       inkscape:collect="always">
      <stop
         style="stop-color:#6d2589;stop-opacity:1;"
         offset="0"
         id="stop14" />
      <stop
         style="stop-color:#a4580c;stop-opacity:1;"
         offset="1"
         id="stop15" />
    </linearGradient>
    <linearGradient
       id="linearGradient9-9"
       inkscape:collect="always"
       gradientTransform="matrix(1.0529844,0,0,0.94968167,-465.06897,-15.935461)"
       x1="452.19925"
       y1="-231.30028"
       x2="631.68768"
       y2="-231.30028"
       gradientUnits="userSpaceOnUse">
      <stop
         style="stop-color:#6d2589;stop-opacity:1;"
         offset="0"
         id="stop8" />
      <stop
         style="stop-color:#a4580c;stop-opacity:1;"
         offset="1"
         id="stop9" />
    </linearGradient>
    <linearGradient
       inkscape:collect="always"
       xlink:href="#linearGradient14"
       id="linearGradient17"
       gradientUnits="userSpaceOnUse"
       gradientTransform="translate(-152.77887,-392.38422)"
       x1="163.86867"
       y1="232.74155"
       x2="352.86719"
       y2="232.74155" />
  </defs>
  <g
     inkscape:label="Layer 1"
     inkscape:groupmode="layer"
     id="layer1"
     transform="translate(-535.05536,-101.04305)">
    <g
       id="g17"
       transform="translate(523.96556,355.18819)"
       inkscape:export-filename="circle-5.png"
       inkscape:export-xdpi="96"
       inkscape:export-ydpi="96">
      <path
         style="color:#000000;fill:url(#linearGradient9-9);fill-opacity:1;stroke:none;stroke-linecap:round;stroke-linejoin:round;-inkscape-stroke:none"
         d="m 51.453552,-235.55805 a 4.5,4.5 0 0 0 -3.32812,0.88867 c -35.16484,26.93399 -46.9032503,74.75475 -28.20703,114.91016 18.69621,40.155409 62.84832,61.953359 106.095698,52.378909 43.24737,-9.57446 74.07422,-47.971099 74.07422,-92.265629 a 4.5,4.5 0 0 0 -4.5,-4.5 4.5,4.5 0 0 0 -4.5,4.5 c 0,40.12474 -27.84338,74.805379 -67.01953,83.478519 -39.176158,8.67313 -79.055998,-11.01536 -95.992188,-47.390629 -16.93619,-36.37527 -6.33301,-79.56832 25.52148,-103.9668 a 4.5,4.5 0 0 0 0.83594,-6.30859 4.5,4.5 0 0 0 -2.98047,-1.72461 z"
         id="path8-1" />
      <path
         style="color:#000000;fill:url(#linearGradient17);fill-opacity:1;stroke:none;stroke-linecap:round;stroke-linejoin:round;-inkscape-stroke:none"
         d="m 107.46722,-254.12641 c -13.913348,-0.27691 -27.886488,2.51697 -40.876948,8.40235 a 4.5,4.5 0 0 0 -2.24219,5.95507 4.5,4.5 0 0 0 5.95508,2.24219 c 23.51216,-10.65226 50.568988,-10.11452 73.638668,1.46485 23.06969,11.57936 39.67004,32.95367 45.17774,58.17187 a 4.5,4.5 0 0 0 5.35547,3.43555 4.5,4.5 0 0 0 3.43554,-5.35547 c -6.086,-27.8661 -24.43964,-51.49972 -49.93164,-64.29492 -12.746,-6.3976 -26.59836,-9.74457 -40.51172,-10.02149 z"
         id="path7-9" />
    </g>
  </g>
</svg>
