<?xml version="1.0" encoding="UTF-8" standalone="no"?>
<!-- Created with Inkscape (http://www.inkscape.org/) -->

<svg
   width="119.0037"
   height="119.00623"
   viewBox="0 0 119.0037 119.00623"
   version="1.1"
   id="svg1"
   inkscape:version="1.3 (0e150ed6c4, 2023-07-21)"
   sodipodi:docname="drawing-1.svg"
   xmlns:inkscape="http://www.inkscape.org/namespaces/inkscape"
   xmlns:sodipodi="http://sodipodi.sourceforge.net/DTD/sodipodi-0.dtd"
   xmlns:xlink="http://www.w3.org/1999/xlink"
   xmlns="http://www.w3.org/2000/svg"
   xmlns:svg="http://www.w3.org/2000/svg">
  <sodipodi:namedview
     id="namedview1"
     pagecolor="#ffffff"
     bordercolor="#000000"
     borderopacity="0.25"
     inkscape:showpageshadow="2"
     inkscape:pageopacity="0.0"
     inkscape:pagecheckerboard="0"
     inkscape:deskcolor="#d1d1d1"
     inkscape:document-units="px"
     inkscape:zoom="0.79394531"
     inkscape:cx="201.52522"
     inkscape:cy="169.40713"
     inkscape:window-width="1920"
     inkscape:window-height="1009"
     inkscape:window-x="-8"
     inkscape:window-y="-8"
     inkscape:window-maximized="1"
     inkscape:current-layer="layer1" />
  <defs
     id="defs1">
    <linearGradient
       id="linearGradient14"
       inkscape:collect="always">
      <stop
         style="stop-color:#6d2589;stop-opacity:1;"
         offset="0"
         id="stop14" />
      <stop
         style="stop-color:#a4580c;stop-opacity:1;"
         offset="1"
         id="stop15" />
    </linearGradient>
    <linearGradient
       inkscape:collect="always"
       xlink:href="#linearGradient14"
       id="linearGradient15"
       gradientUnits="userSpaceOnUse"
       gradientTransform="translate(-164.11466,-433.9488)"
       x1="163.86867"
       y1="232.74155"
       x2="352.86719"
       y2="232.74155" />
  </defs>
  <g
     inkscape:label="Layer 1"
     inkscape:groupmode="layer"
     id="layer1"
     transform="translate(-34.752522,260.71588)">
    <path
       style="color:#000000;fill:url(#linearGradient15);fill-opacity:1;stroke:none;stroke-linecap:round;stroke-linejoin:round;-inkscape-stroke:none"
       d="m 93.641198,-260.71247 c -23.87818,0.25625 -46.08343,14.9731 -54.98047,38.28906 a 4.5,4.5 0 0 0 2.60156,5.80859 4.5,4.5 0 0 0 5.8086,-2.59961 c 9.32003,-24.42448 35.62496,-37.6764 60.798822,-30.62695 25.17387,7.04945 40.77264,32.03539 36.05274,57.74805 -4.7199,25.71266 -28.17458,43.5286 -54.210942,41.17773 -26.03635,-2.35086 -45.92115,-24.08041 -45.95898,-50.22265 a 4.5,4.5 0 0 0 -4.50782,-4.49414 4.5,4.5 0 0 0 -4.49218,4.50781 c 0.0445,30.71478 23.55807,56.40982 54.14843,59.17187 30.590372,2.76206 58.327592,-18.30557 63.873052,-48.51562 5.54546,-30.21006 -12.89954,-59.75659 -42.47656,-68.03906 -5.54569,-1.55297 -11.145902,-2.26422 -16.656252,-2.20508 z"
       id="path11-1"
       inkscape:export-filename="circle-3.png"
       inkscape:export-xdpi="96"
       inkscape:export-ydpi="96" />
  </g>
</svg>
